<mxfile host="app.diagrams.net" agent="Mozilla/5.0 (X11; Linux x86_64; rv:143.0) Gecko/20100101 Firefox/143.0" version="28.2.5">
  <diagram id="2RAkf9iS2bYrb-5zrusB" name="Page-1">
    <mxGraphModel dx="1426" dy="794" grid="1" gridSize="10" guides="1" tooltips="1" connect="1" arrows="1" fold="1" page="1" pageScale="1" pageWidth="1100" pageHeight="850" math="0" shadow="0">
      <root>
        <mxCell id="0" />
        <mxCell id="1" parent="0" />
        <mxCell id="EpLoNu7SxfJ4iQwhgqlz-1" value="&lt;h1&gt;Assurance Case&lt;/h1&gt;" style="text;html=1;strokeColor=none;fillColor=none;spacing=5;spacingTop=-20;whiteSpace=wrap;overflow=hidden;rounded=0;" parent="1" vertex="1">
          <mxGeometry x="20" y="20" width="190" height="150" as="geometry" />
        </mxCell>
        <mxCell id="EpLoNu7SxfJ4iQwhgqlz-4" style="edgeStyle=orthogonalEdgeStyle;rounded=0;orthogonalLoop=1;jettySize=auto;html=1;exitX=1;exitY=0.5;exitDx=0;exitDy=0;entryX=0;entryY=0.5;entryDx=0;entryDy=0;endArrow=block;endFill=1;" parent="1" source="EpLoNu7SxfJ4iQwhgqlz-2" target="EpLoNu7SxfJ4iQwhgqlz-3" edge="1">
          <mxGeometry relative="1" as="geometry" />
        </mxCell>
        <mxCell id="RSrHG8YaXGJd-fVg2QL8-23" style="edgeStyle=orthogonalEdgeStyle;rounded=0;orthogonalLoop=1;jettySize=auto;html=1;exitX=0.5;exitY=1;exitDx=0;exitDy=0;" edge="1" parent="1" source="EpLoNu7SxfJ4iQwhgqlz-2" target="RSrHG8YaXGJd-fVg2QL8-6">
          <mxGeometry relative="1" as="geometry" />
        </mxCell>
        <mxCell id="EpLoNu7SxfJ4iQwhgqlz-2" value="&lt;b&gt;Top-Claim C1:All Requests through the reverse proxy are required to go through the WAF&lt;/b&gt;" style="rounded=0;whiteSpace=wrap;html=1;" parent="1" vertex="1">
          <mxGeometry x="450" y="20" width="150" height="100" as="geometry" />
        </mxCell>
        <mxCell id="EpLoNu7SxfJ4iQwhgqlz-3" value="Context: CT1Coraza WAF can be deployed as a module in a reverse proxy" style="rounded=1;whiteSpace=wrap;html=1;arcSize=30;" parent="1" vertex="1">
          <mxGeometry x="740" y="20" width="120" height="60" as="geometry" />
        </mxCell>
        <mxCell id="EpLoNu7SxfJ4iQwhgqlz-9" style="edgeStyle=orthogonalEdgeStyle;curved=1;rounded=0;orthogonalLoop=1;jettySize=auto;html=1;endArrow=block;endFill=1;" parent="1" source="EpLoNu7SxfJ4iQwhgqlz-5" target="EpLoNu7SxfJ4iQwhgqlz-8" edge="1">
          <mxGeometry relative="1" as="geometry" />
        </mxCell>
        <mxCell id="EpLoNu7SxfJ4iQwhgqlz-5" value="Rebuttal R1: Unless WAF doesn&#39;t start up" style="shape=note;whiteSpace=wrap;html=1;backgroundOutline=1;darkOpacity=0.05;size=17;fillColor=#FFF2CC;" parent="1" vertex="1">
          <mxGeometry x="85" y="200" width="140" height="60" as="geometry" />
        </mxCell>
        <mxCell id="EpLoNu7SxfJ4iQwhgqlz-12" style="edgeStyle=orthogonalEdgeStyle;curved=1;rounded=0;orthogonalLoop=1;jettySize=auto;html=1;exitX=0.5;exitY=1;exitDx=0;exitDy=0;entryX=0.5;entryY=0;entryDx=0;entryDy=0;entryPerimeter=0;endArrow=block;endFill=1;" parent="1" source="EpLoNu7SxfJ4iQwhgqlz-8" target="EpLoNu7SxfJ4iQwhgqlz-10" edge="1">
          <mxGeometry relative="1" as="geometry" />
        </mxCell>
        <mxCell id="EpLoNu7SxfJ4iQwhgqlz-8" value="&lt;b&gt;Sub-Claim C2:Reverse proxy should fail to start if a required module does not load&lt;/b&gt;" style="rounded=0;whiteSpace=wrap;html=1;" parent="1" vertex="1">
          <mxGeometry x="87.5" y="300" width="135" height="60" as="geometry" />
        </mxCell>
        <mxCell id="RSrHG8YaXGJd-fVg2QL8-5" style="edgeStyle=orthogonalEdgeStyle;rounded=0;orthogonalLoop=1;jettySize=auto;html=1;exitX=0.5;exitY=1;exitDx=0;exitDy=0;exitPerimeter=0;entryX=0.5;entryY=0;entryDx=0;entryDy=0;" edge="1" parent="1" source="EpLoNu7SxfJ4iQwhgqlz-10" target="RSrHG8YaXGJd-fVg2QL8-4">
          <mxGeometry relative="1" as="geometry" />
        </mxCell>
        <mxCell id="EpLoNu7SxfJ4iQwhgqlz-10" value="Rebuttal R2: Unless WAF is not set up as a required module" style="shape=note;whiteSpace=wrap;html=1;backgroundOutline=1;darkOpacity=0.05;size=17;fillColor=#FFF2CC;" parent="1" vertex="1">
          <mxGeometry x="85" y="395" width="140" height="60" as="geometry" />
        </mxCell>
        <mxCell id="EpLoNu7SxfJ4iQwhgqlz-21" style="edgeStyle=orthogonalEdgeStyle;curved=1;rounded=0;orthogonalLoop=1;jettySize=auto;html=1;entryX=0.5;entryY=0;entryDx=0;entryDy=0;endArrow=block;endFill=1;exitX=0.5;exitY=1;exitDx=0;exitDy=0;" parent="1" source="RSrHG8YaXGJd-fVg2QL8-3" target="EpLoNu7SxfJ4iQwhgqlz-19" edge="1">
          <mxGeometry relative="1" as="geometry">
            <mxPoint x="305" y="540" as="sourcePoint" />
          </mxGeometry>
        </mxCell>
        <mxCell id="EpLoNu7SxfJ4iQwhgqlz-23" style="edgeStyle=orthogonalEdgeStyle;curved=1;rounded=0;orthogonalLoop=1;jettySize=auto;html=1;entryX=0.5;entryY=0;entryDx=0;entryDy=0;endArrow=block;endFill=1;" parent="1" source="EpLoNu7SxfJ4iQwhgqlz-18" target="EpLoNu7SxfJ4iQwhgqlz-22" edge="1">
          <mxGeometry relative="1" as="geometry" />
        </mxCell>
        <mxCell id="EpLoNu7SxfJ4iQwhgqlz-18" value="&lt;b&gt;Evidence E1&lt;/b&gt;:Reverse proxy configuration file" style="ellipse;whiteSpace=wrap;html=1;aspect=fixed;fillColor=#ffffff;rounded=0;" parent="1" vertex="1">
          <mxGeometry x="107.5" y="580" width="100" height="100" as="geometry" />
        </mxCell>
        <mxCell id="EpLoNu7SxfJ4iQwhgqlz-25" style="edgeStyle=orthogonalEdgeStyle;curved=1;rounded=0;orthogonalLoop=1;jettySize=auto;html=1;entryX=0.5;entryY=0;entryDx=0;entryDy=0;endArrow=block;endFill=1;" parent="1" source="EpLoNu7SxfJ4iQwhgqlz-19" target="EpLoNu7SxfJ4iQwhgqlz-24" edge="1">
          <mxGeometry relative="1" as="geometry" />
        </mxCell>
        <mxCell id="EpLoNu7SxfJ4iQwhgqlz-19" value="&lt;b&gt;Evidence E2:&lt;/b&gt;Reverse Proxy logs" style="ellipse;whiteSpace=wrap;html=1;aspect=fixed;fillColor=#ffffff;rounded=0;" parent="1" vertex="1">
          <mxGeometry x="350" y="580" width="100" height="100" as="geometry" />
        </mxCell>
        <mxCell id="EpLoNu7SxfJ4iQwhgqlz-22" value="" style="ellipse;whiteSpace=wrap;html=1;aspect=fixed;fillColor=#CCCCCC;" parent="1" vertex="1">
          <mxGeometry x="142.5" y="710" width="30" height="30" as="geometry" />
        </mxCell>
        <mxCell id="EpLoNu7SxfJ4iQwhgqlz-24" value="" style="ellipse;whiteSpace=wrap;html=1;aspect=fixed;fillColor=#CCCCCC;" parent="1" vertex="1">
          <mxGeometry x="385" y="710" width="30" height="30" as="geometry" />
        </mxCell>
        <mxCell id="RSrHG8YaXGJd-fVg2QL8-16" value="" style="edgeStyle=orthogonalEdgeStyle;rounded=0;orthogonalLoop=1;jettySize=auto;html=1;" edge="1" parent="1" source="EpLoNu7SxfJ4iQwhgqlz-28" target="RSrHG8YaXGJd-fVg2QL8-11">
          <mxGeometry relative="1" as="geometry" />
        </mxCell>
        <mxCell id="EpLoNu7SxfJ4iQwhgqlz-28" value="Undermine UM1:&amp;nbsp;Firewall rules are too permissive" style="shape=note;whiteSpace=wrap;html=1;backgroundOutline=1;darkOpacity=0.05;size=17;fillColor=#A9C4EB;" parent="1" vertex="1">
          <mxGeometry x="1030" y="395" width="140" height="65" as="geometry" />
        </mxCell>
        <mxCell id="RSrHG8YaXGJd-fVg2QL8-1" value="" style="endArrow=classic;html=1;rounded=0;exitX=0.5;exitY=1;exitDx=0;exitDy=0;entryX=0.5;entryY=0;entryDx=0;entryDy=0;" edge="1" parent="1" source="RSrHG8YaXGJd-fVg2QL8-4" target="EpLoNu7SxfJ4iQwhgqlz-18">
          <mxGeometry width="50" height="50" relative="1" as="geometry">
            <mxPoint x="340" y="310" as="sourcePoint" />
            <mxPoint x="390" y="260" as="targetPoint" />
          </mxGeometry>
        </mxCell>
        <mxCell id="RSrHG8YaXGJd-fVg2QL8-7" style="edgeStyle=orthogonalEdgeStyle;rounded=0;orthogonalLoop=1;jettySize=auto;html=1;exitX=0.5;exitY=1;exitDx=0;exitDy=0;exitPerimeter=0;entryX=0.5;entryY=0;entryDx=0;entryDy=0;" edge="1" parent="1" source="RSrHG8YaXGJd-fVg2QL8-2" target="RSrHG8YaXGJd-fVg2QL8-3">
          <mxGeometry relative="1" as="geometry" />
        </mxCell>
        <mxCell id="RSrHG8YaXGJd-fVg2QL8-2" value="Rebuttal R3: Unless WAF is misconfigured" style="shape=note;whiteSpace=wrap;html=1;backgroundOutline=1;darkOpacity=0.05;size=17;fillColor=#FFF2CC;" vertex="1" parent="1">
          <mxGeometry x="330" y="200" width="140" height="60" as="geometry" />
        </mxCell>
        <mxCell id="RSrHG8YaXGJd-fVg2QL8-3" value="&lt;b&gt;Sub-Claim C4:Coraza fails to load if misconfigured&lt;/b&gt;" style="rounded=0;whiteSpace=wrap;html=1;" vertex="1" parent="1">
          <mxGeometry x="330" y="300" width="140" height="60" as="geometry" />
        </mxCell>
        <mxCell id="RSrHG8YaXGJd-fVg2QL8-4" value="&lt;b&gt;Sub-Claim C3: WAF is configured as a required module&lt;/b&gt;" style="rounded=0;whiteSpace=wrap;html=1;" vertex="1" parent="1">
          <mxGeometry x="85" y="490" width="145" height="60" as="geometry" />
        </mxCell>
        <mxCell id="RSrHG8YaXGJd-fVg2QL8-20" value="" style="edgeStyle=orthogonalEdgeStyle;rounded=0;orthogonalLoop=1;jettySize=auto;html=1;" edge="1" parent="1" source="RSrHG8YaXGJd-fVg2QL8-6" target="RSrHG8YaXGJd-fVg2QL8-19">
          <mxGeometry relative="1" as="geometry" />
        </mxCell>
        <mxCell id="RSrHG8YaXGJd-fVg2QL8-6" value="Rebuttal R4: Unless Reverse Proxy is misconfigured" style="shape=note;whiteSpace=wrap;html=1;backgroundOutline=1;darkOpacity=0.05;size=17;fillColor=#FFF2CC;" vertex="1" parent="1">
          <mxGeometry x="570" y="200" width="140" height="60" as="geometry" />
        </mxCell>
        <mxCell id="RSrHG8YaXGJd-fVg2QL8-18" value="" style="edgeStyle=orthogonalEdgeStyle;rounded=0;orthogonalLoop=1;jettySize=auto;html=1;" edge="1" parent="1" source="RSrHG8YaXGJd-fVg2QL8-8" target="RSrHG8YaXGJd-fVg2QL8-9">
          <mxGeometry relative="1" as="geometry" />
        </mxCell>
        <mxCell id="RSrHG8YaXGJd-fVg2QL8-8" value="Rebuttal R5: Unless another path to application exists" style="shape=note;whiteSpace=wrap;html=1;backgroundOutline=1;darkOpacity=0.05;size=17;fillColor=#FFF2CC;" vertex="1" parent="1">
          <mxGeometry x="820" y="200" width="140" height="60" as="geometry" />
        </mxCell>
        <mxCell id="RSrHG8YaXGJd-fVg2QL8-14" style="edgeStyle=orthogonalEdgeStyle;rounded=0;orthogonalLoop=1;jettySize=auto;html=1;entryX=0.5;entryY=0;entryDx=0;entryDy=0;" edge="1" parent="1" source="RSrHG8YaXGJd-fVg2QL8-9" target="RSrHG8YaXGJd-fVg2QL8-13">
          <mxGeometry relative="1" as="geometry" />
        </mxCell>
        <mxCell id="RSrHG8YaXGJd-fVg2QL8-9" value="&lt;b&gt;Sub-Claim C6:Firewall application runs on application server&lt;/b&gt;" style="rounded=0;whiteSpace=wrap;html=1;" vertex="1" parent="1">
          <mxGeometry x="820" y="300" width="140" height="60" as="geometry" />
        </mxCell>
        <mxCell id="RSrHG8YaXGJd-fVg2QL8-17" value="" style="edgeStyle=orthogonalEdgeStyle;rounded=0;orthogonalLoop=1;jettySize=auto;html=1;" edge="1" parent="1" source="RSrHG8YaXGJd-fVg2QL8-11" target="RSrHG8YaXGJd-fVg2QL8-12">
          <mxGeometry relative="1" as="geometry" />
        </mxCell>
        <mxCell id="RSrHG8YaXGJd-fVg2QL8-11" value="&lt;b&gt;Sub-Claim C7: Firewall is configured to only allow requests from proxy server&lt;/b&gt;" style="rounded=0;whiteSpace=wrap;html=1;" vertex="1" parent="1">
          <mxGeometry x="1030" y="490" width="140" height="60" as="geometry" />
        </mxCell>
        <mxCell id="RSrHG8YaXGJd-fVg2QL8-12" value="&lt;b&gt;Evidence E4:&lt;/b&gt;Firewall configuration file" style="ellipse;whiteSpace=wrap;html=1;aspect=fixed;fillColor=#ffffff;rounded=0;" vertex="1" parent="1">
          <mxGeometry x="1050" y="580" width="100" height="100" as="geometry" />
        </mxCell>
        <mxCell id="RSrHG8YaXGJd-fVg2QL8-13" value="&lt;b&gt;Evidence E3:&lt;/b&gt;Firewall log file" style="ellipse;whiteSpace=wrap;html=1;aspect=fixed;fillColor=#ffffff;rounded=0;" vertex="1" parent="1">
          <mxGeometry x="840" y="580" width="100" height="100" as="geometry" />
        </mxCell>
        <mxCell id="RSrHG8YaXGJd-fVg2QL8-15" style="edgeStyle=orthogonalEdgeStyle;rounded=0;orthogonalLoop=1;jettySize=auto;html=1;entryX=0.5;entryY=0;entryDx=0;entryDy=0;entryPerimeter=0;" edge="1" parent="1" source="RSrHG8YaXGJd-fVg2QL8-9" target="EpLoNu7SxfJ4iQwhgqlz-28">
          <mxGeometry relative="1" as="geometry" />
        </mxCell>
        <mxCell id="RSrHG8YaXGJd-fVg2QL8-19" value="&lt;b&gt;Sub-Claim C5:IDK....&lt;/b&gt;" style="rounded=0;whiteSpace=wrap;html=1;" vertex="1" parent="1">
          <mxGeometry x="570" y="300" width="140" height="60" as="geometry" />
        </mxCell>
        <mxCell id="RSrHG8YaXGJd-fVg2QL8-22" style="edgeStyle=orthogonalEdgeStyle;rounded=0;orthogonalLoop=1;jettySize=auto;html=1;exitX=0.5;exitY=1;exitDx=0;exitDy=0;entryX=0.5;entryY=0;entryDx=0;entryDy=0;entryPerimeter=0;" edge="1" parent="1" source="EpLoNu7SxfJ4iQwhgqlz-2" target="RSrHG8YaXGJd-fVg2QL8-2">
          <mxGeometry relative="1" as="geometry" />
        </mxCell>
        <mxCell id="RSrHG8YaXGJd-fVg2QL8-24" style="edgeStyle=orthogonalEdgeStyle;rounded=0;orthogonalLoop=1;jettySize=auto;html=1;exitX=0.5;exitY=1;exitDx=0;exitDy=0;entryX=0.5;entryY=0;entryDx=0;entryDy=0;entryPerimeter=0;" edge="1" parent="1" source="EpLoNu7SxfJ4iQwhgqlz-2" target="RSrHG8YaXGJd-fVg2QL8-8">
          <mxGeometry relative="1" as="geometry" />
        </mxCell>
        <mxCell id="RSrHG8YaXGJd-fVg2QL8-25" style="edgeStyle=orthogonalEdgeStyle;rounded=0;orthogonalLoop=1;jettySize=auto;html=1;exitX=0.5;exitY=1;exitDx=0;exitDy=0;entryX=0.5;entryY=0;entryDx=0;entryDy=0;entryPerimeter=0;" edge="1" parent="1" source="EpLoNu7SxfJ4iQwhgqlz-2" target="EpLoNu7SxfJ4iQwhgqlz-5">
          <mxGeometry relative="1" as="geometry" />
        </mxCell>
        <mxCell id="RSrHG8YaXGJd-fVg2QL8-26" style="edgeStyle=orthogonalEdgeStyle;curved=1;rounded=0;orthogonalLoop=1;jettySize=auto;html=1;entryX=0.5;entryY=0;entryDx=0;entryDy=0;endArrow=block;endFill=1;" edge="1" parent="1" target="RSrHG8YaXGJd-fVg2QL8-27">
          <mxGeometry relative="1" as="geometry">
            <mxPoint x="890" y="690" as="sourcePoint" />
          </mxGeometry>
        </mxCell>
        <mxCell id="RSrHG8YaXGJd-fVg2QL8-27" value="" style="ellipse;whiteSpace=wrap;html=1;aspect=fixed;fillColor=#CCCCCC;" vertex="1" parent="1">
          <mxGeometry x="875" y="720" width="30" height="30" as="geometry" />
        </mxCell>
        <mxCell id="RSrHG8YaXGJd-fVg2QL8-28" style="edgeStyle=orthogonalEdgeStyle;curved=1;rounded=0;orthogonalLoop=1;jettySize=auto;html=1;entryX=0.5;entryY=0;entryDx=0;entryDy=0;endArrow=block;endFill=1;" edge="1" parent="1" target="RSrHG8YaXGJd-fVg2QL8-29">
          <mxGeometry relative="1" as="geometry">
            <mxPoint x="1100" y="690" as="sourcePoint" />
          </mxGeometry>
        </mxCell>
        <mxCell id="RSrHG8YaXGJd-fVg2QL8-29" value="" style="ellipse;whiteSpace=wrap;html=1;aspect=fixed;fillColor=#CCCCCC;" vertex="1" parent="1">
          <mxGeometry x="1085" y="720" width="30" height="30" as="geometry" />
        </mxCell>
      </root>
    </mxGraphModel>
  </diagram>
</mxfile>
